<svg width="208" height="213" viewBox="0 0 208 213" fill="none" xmlns="http://www.w3.org/2000/svg">
<g clip-path="url(#clip0)">
<path d="M89.3668 69.0837L87.5137 69.0024C87.6241 66.4746 88.734 44.1884 93.612 40.123C93.9218 39.8461 94.2871 39.6387 94.6835 39.5146C95.0799 39.3904 95.4982 39.3524 95.9104 39.4031C98.8145 39.8076 101.986 44.4157 105.605 53.4907C108.183 59.952 110.04 66.3946 110.059 66.459L108.276 66.9713C108.258 66.9078 106.422 60.5431 103.878 54.167C99.3861 42.9093 96.6309 41.3776 95.6549 41.2418C95.4983 41.2248 95.3398 41.2437 95.1916 41.297C95.0433 41.3503 94.909 41.4366 94.7989 41.5493C91.1995 44.5488 89.6574 62.442 89.3668 69.0837Z" fill="black"/>
<path d="M72.9957 57.0586L71.1406 103.609L132.348 97.0113L124.782 52.0682L72.9957 57.0586Z" fill="#FFBA49"/>
<path d="M124.782 52.0682L120.28 52.502L126.272 91.9125L71.355 98.2356L71.1406 103.609L132.348 97.0113L124.782 52.0682Z" fill="#FFA113"/>
<path d="M157.85 132.113L155.304 131.83C155.326 131.63 157.44 111.716 150.585 104.27C149.779 103.364 148.779 102.653 147.66 102.189C146.54 101.724 145.331 101.52 144.121 101.591C129.189 102.015 122.168 127.658 122.099 127.917L119.625 127.255C121.004 122.466 122.92 117.849 125.335 113.491C130.537 104.23 137.008 99.2288 144.048 99.0287C145.624 98.9478 147.199 99.2207 148.656 99.8274C150.113 100.434 151.416 101.359 152.47 102.535C160.113 110.841 157.946 131.248 157.85 132.113Z" fill="#FFBA49"/>
<path d="M112.427 113.85L166.457 120.263L165.619 205.997L93.4961 197.401L112.427 113.85Z" fill="#DB3022"/>
<path d="M166.457 120.262L161.106 119.627L158.5 198.955L94.5119 192.918L93.4961 197.401L165.619 205.997L166.457 120.262Z" fill="#D10505"/>
<path d="M179.998 147.509C182.459 148.025 184.803 146.057 185.234 143.109C185.693 143.893 186.152 144.678 186.611 145.464C186.181 148.411 183.835 150.38 181.377 149.864C180.918 149.078 180.458 148.293 179.998 147.509Z" fill="#FFBA49"/>
<path d="M107.332 210.563C109.793 211.079 112.137 209.11 112.568 206.163C113.027 206.947 113.486 207.731 113.945 208.517C113.515 211.464 111.169 213.434 108.711 212.918C108.252 212.132 107.792 211.347 107.332 210.563Z" fill="#9B9B9B"/>
<path d="M185.494 98.1688C186.526 100.893 189.205 102.103 191.481 100.867C191.199 101.765 190.917 102.662 190.634 103.559C188.358 104.793 185.679 103.584 184.648 100.859C184.932 99.9633 185.214 99.0666 185.494 98.1688Z" fill="#FF5C00"/>
<path d="M169.571 78.8197C169.986 75.8687 168.327 73.0745 165.863 72.5774C166.515 72.0213 167.167 71.4653 167.819 70.9095C170.281 71.4067 171.941 74.202 171.527 77.1519C170.876 77.7081 170.224 78.264 169.571 78.8197Z" fill="#021193"/>
<path d="M21.7077 66.9101C22.123 63.9591 20.4636 61.1648 18 60.6677C18.6515 60.1116 19.3035 59.5557 19.9563 59C22.418 59.497 24.0783 62.2923 23.664 65.2423C23.0125 65.7984 22.3604 66.3543 21.7077 66.9101Z" fill="#FF5C00"/>
<path d="M72.0943 171.475C72.5097 168.523 70.8503 165.729 68.3867 165.232C69.0382 164.676 69.6902 164.12 70.3429 163.564C72.8046 164.061 74.4649 166.857 74.0506 169.807C73.3992 170.363 72.7471 170.919 72.0943 171.475Z" fill="#FF5C00"/>
<path d="M201.332 60.8891C203.777 61.506 206.174 59.6326 206.689 56.7031C207.126 57.5057 207.563 58.309 208 59.1128C207.486 62.0394 205.087 63.914 202.644 63.2988C202.206 62.4962 201.769 61.6929 201.332 60.8891Z" fill="#FFBA49"/>
<path d="M5.82079 97.1412C4.94465 94.3384 2.33935 92.9171 0 93.968C0.330918 93.0966 0.662322 92.2241 0.994215 91.3504C3.33162 90.3007 5.93838 91.7208 6.815 94.5224C6.4841 95.395 6.15269 96.2679 5.82079 97.1412Z" fill="#FFBA49"/>
<path d="M66.5349 131.28C66.7076 134.264 68.8677 136.516 71.3587 136.308C70.8334 137.033 70.3071 137.754 69.7827 138.479C67.2908 138.685 65.1315 136.432 64.959 133.447C65.4843 132.726 66.0096 132.003 66.5349 131.28Z" fill="#DB3022"/>
<path d="M48.9277 77.0532C51.4018 76.6419 53.1285 73.905 52.7843 70.9409C53.4234 71.5197 54.0616 72.0978 54.6988 72.6752C55.0421 75.6404 53.3163 78.3756 50.8423 78.7886C50.205 78.2097 49.5668 77.6312 48.9277 77.0532Z" fill="#021193"/>
<path d="M149.813 40.7056C146.605 40.8118 148.911 46.4645 145.702 46.5731C145.089 45.9567 144.477 45.3404 143.863 44.724C147.072 44.6172 144.766 38.9645 147.974 38.8561C148.587 39.4724 149.2 40.0889 149.813 40.7056Z" fill="#FF5C00"/>
<path d="M155.642 189.278C152.52 188.392 153.532 194.565 150.408 193.68C149.948 192.895 149.489 192.11 149.029 191.325C152.153 192.211 151.14 186.038 154.265 186.924C154.723 187.709 155.183 188.494 155.642 189.278Z" fill="#FFBA49"/>
<path d="M62.7799 197.315C60.5743 200.109 65.5412 202.157 63.3356 204.949C62.5391 205.031 61.7416 205.116 60.9451 205.197C63.1507 202.404 58.1837 200.359 60.3894 197.565C61.1868 197.483 61.9837 197.399 62.7799 197.315Z" fill="#021193"/>
<path d="M134.225 4.35469C131.085 5.15391 134.201 10.2188 131.063 11.0163C130.369 10.5414 129.671 10.0682 128.977 9.59218C132.116 8.79516 128.997 3.73212 132.138 2.93286C132.834 3.4089 133.53 3.88284 134.225 4.35469Z" fill="#DB3022"/>
<path d="M33.4445 21.0038C34.9892 24.3757 38.1377 19.3393 39.6801 22.7102C39.5009 23.6435 39.324 24.5802 39.1439 25.5141C37.6016 22.1421 34.4548 27.1801 32.9102 23.8082C33.0898 22.872 33.2679 21.9372 33.4445 21.0038Z" fill="#9B9B9B"/>
<path d="M6.81445 153.583C7.22878 153.508 7.60363 153.29 7.87356 152.966C8.14349 152.643 8.29136 152.235 8.29136 151.814C8.29136 151.392 8.14349 150.984 7.87356 150.661C7.60363 150.337 7.22878 150.119 6.81445 150.044" fill="black"/>
<path d="M174.448 16.8658C173.098 16.8658 172 15.5501 172 13.9328C172 12.3156 173.098 11 174.448 11C175.798 11 176.896 12.3156 176.896 13.9329C176.896 15.5501 175.798 16.8658 174.448 16.8658ZM174.448 12.1634C174.019 12.2058 173.624 12.415 173.348 12.7459C173.072 13.0768 172.936 13.5031 172.971 13.9329C172.932 14.1493 172.941 14.3716 172.997 14.5842C173.053 14.7968 173.155 14.9945 173.296 15.1633C173.437 15.332 173.613 15.4678 173.812 15.561C174.011 15.6541 174.228 15.7024 174.448 15.7024C174.668 15.7024 174.885 15.6541 175.084 15.561C175.283 15.4678 175.459 15.332 175.6 15.1633C175.741 14.9945 175.843 14.7968 175.899 14.5842C175.955 14.3716 175.964 14.1493 175.925 13.9329C175.959 13.5031 175.824 13.0768 175.548 12.7459C175.272 12.415 174.877 12.2058 174.448 12.1634Z" fill="black"/>
<path d="M31.9479 127.983C30.5981 127.983 29.5 126.668 29.5 125.05C29.5 123.433 30.5981 122.117 31.9479 122.117C33.2977 122.117 34.3958 123.433 34.3958 125.05C34.3958 126.668 33.2977 127.983 31.9479 127.983ZM31.9479 123.281C31.5336 123.356 31.1587 123.574 30.8888 123.897C30.6189 124.221 30.471 124.629 30.471 125.05C30.471 125.472 30.6189 125.88 30.8888 126.203C31.1587 126.526 31.5336 126.745 31.9479 126.82C32.3622 126.745 32.7371 126.526 33.007 126.203C33.2769 125.88 33.4248 125.472 33.4248 125.05C33.4248 124.629 33.2769 124.221 33.007 123.897C32.7371 123.574 32.3622 123.356 31.9479 123.281Z" fill="black"/>
</g>
<defs>
<clipPath id="clip0">
<rect width="208" height="213" fill="white"/>
</clipPath>
</defs>
</svg>
